<svg width="3333.0000000000005" height="3333.0000000000005" xmlns="http://www.w3.org/2000/svg" clip-rule="evenodd" fill-rule="evenodd" image-rendering="optimizeQuality" text-rendering="geometricPrecision" shape-rendering="geometricPrecision">

 <g>
  <title>Layer 1</title>
  <path fill="#ffffff" id="svg_1" d="m1667,0c920,0 1667,746 1667,1667c0,920 -746,1667 -1667,1667c-920,0 -1667,-746 -1667,-1667c0,-920 746,-1667 1667,-1667zm-215,1336l342,0l0,175l5,0c48,-86 164,-175 338,-175c361,0 428,225 428,517l0,596l-357,0l0,-528c0,-126 -3,-288 -186,-288c-186,0 -214,137 -214,279l0,537l-357,0l0,-1113l1,0zm-247,-309c0,102 -83,186 -186,186c-102,0 -186,-83 -186,-186c0,-102 83,-186 186,-186c102,0 186,83 186,186zm-371,309l371,0l0,1113l-371,0l0,-1113z"/>
  <polyline stroke-linecap="round" id="svg_2" points="951.6822191775575,1014.9862283404073 951.6822191775575,1014.9862283404073 " stroke="#000" fill="none"/>
  <path stroke="null" fill="none" d="m1707.5741,1522.38892c0,5.55554 0,11.11108 0,11.11108c0,0 5.55554,5.55554 5.55554,11.11108c0,5.55554 0,11.11108 0,11.11108c0,5.55554 0,11.11121 0,11.11121c5.55554,11.11108 5.55554,11.11108 5.55554,16.66663c0,5.55554 0,5.55554 0,5.55554c0,5.55554 0,11.11108 0,11.11108c0,5.55554 0,11.11108 5.55554,11.11108c5.55554,0 5.55554,0 11.11108,0c5.55554,0 11.53394,2.1261 16.66675,0c7.25867,-3.00659 11.11108,-11.11108 16.66663,-22.22217c5.55554,-11.11108 10.86206,-19.71753 16.66663,-38.88892c4.82971,-15.95154 -0.84875,-28.00732 5.55554,-50c4.91187,-16.86755 9.75183,-39.62231 22.22229,-61.11108c10.05396,-17.32483 20.81335,-34.22888 38.88892,-61.11108c15.49976,-23.05139 33.33325,-44.44446 55.55554,-66.66675c22.22217,-22.22217 35.91357,-41.46912 55.55554,-61.11108c19.64185,-19.64185 33.33325,-38.88892 44.44446,-50c11.11108,-11.11108 20.58582,-29.70105 33.33325,-38.88892c10.07776,-7.26367 12.14465,-14.9585 22.22229,-22.22217c6.37354,-4.59387 11.11108,-16.66663 11.11108,-16.66663c5.55566,0 5.55566,-5.55554 11.11108,-5.55554l0,-5.55566l0,0" id="svg_3"/>
  <line id="svg_4" y2="33.49999" x2="996.46295" y1="200.16666" x1="685.35184" fill="none"/>
 </g>
</svg>